[Header]
FileType HTR
DataType HTRS
FileVersion 1
NumSegments 22
NumFrames 6
DataFrameRate 24
EulerRotationOrder ZYX
CalibrationUnits mm
RotationUnits Degrees
GlobalAxisofGravity Y
BoneLengthAxis Y
ScaleFactor 1.0
[SegmentNames&Hierarchy]
reference	GLOBAL
Hips	reference
Spine	Hips
Spine1	Spine
Neck	Spine1
Head	Neck
LeftShoulder	Spine1
LeftArm	LeftShoulder
LeftForeArm	LeftArm
LeftHand	LeftForeArm
RightShoulder	Spine1
RightArm	RightShoulder
RightForeArm	RightArm
RightHand	RightForeArm
LeftUpLeg	Hips
LeftLeg	LeftUpLeg
LeftFoot	LeftLeg
LeftToeBase	LeftFoot
RightUpLeg	Hips
RightLeg	RightUpLeg
RightFoot	RightLeg
RightToeBase	RightFoot
[BasePosition]
reference	0	0	0	0	0	0	1
Hips	0	0	0	0	0	0	1
Spine	0	0	0	-0	-90	0	1
Spine1	0	0	0	0	0	0	1
Neck	0	0	0	82.64767223	-82.64767223	-90	1
Head	0	0	0	-0	-90	0	1
LeftShoulder	0	0	0	0	0	0	1
LeftArm	0	0	0	0	0	0	1
LeftForeArm	0	0	0	0	0	0	1
LeftHand	0	0	0	0	0	0	1
RightShoulder	0	0	0	0	-0	180	1
RightArm	0	0	0	0	-0	180	1
RightForeArm	0	0	0	0	-0	180	1
RightHand	0	0	0	0	-0	180	1
LeftUpLeg	0	0	0	-0	90	0	1
LeftLeg	0	0	0	-0	90	0	1
LeftFoot	0	0	0	-23.42853957	23.42853957	-90	1
LeftToeBase	0	0	0	0	-0	-90	1
RightUpLeg	0	0	0	-0	90	0	1
RightLeg	0	0	0	-0	90	0	1
RightFoot	0	0	0	-23.42853957	23.42853957	-90	1
RightToeBase	0	0	0	0	-0	-90	1
[reference]
10	0	0	0	0	-0	0	1.0
11	0	0	0	0	-0	0	1.0
12	0	0	0	0	-0	0	1.0
13	0	0	0	0	-0	0	1.0
14	0	0	0	0	-0	0	1.0
15	0	0	0	0	-0	0	1.0
[Hips]
10	5.19536972	-0.1693199873	8.00755024	0.1148721874	1.071530819	-132.7504578	1.0
11	5.19536972	-0.1693199873	8.00755024	0.427806288	0.4625880122	-132.8161011	1.0
12	5.19536972	-0.1693199873	8.00755024	0.8438411951	0.1494963169	-133.1798859	1.0
13	5.19536972	-0.1693199873	8.00755024	0.8739821911	-0.03592881933	-133.187973	1.0
14	5.19536972	-0.1693199873	8.00755024	1.473698735	-0.5913664103	-133.4049835	1.0
15	5.19536972	-0.1693199873	8.00755024	1.549521804	-1.195049763	-133.5721741	1.0
[Spine]
10	0	0	0.7457100153	-90.13902283	84.85255432	-86.4310379	1.0
11	0	0	0.7457100153	-96.64315796	84.02708435	-93.20167542	1.0
12	0	0	0.7457100153	-101.8778152	83.38349915	-98.58200073	1.0
13	0	0	0.7457100153	-104.8278503	82.85124969	-102.0075607	1.0
14	0	0	0.7457100153	-108.9247437	82.62825012	-106.3766937	1.0
15	0	0	0.7457100153	-112.9950943	82.32784271	-110.7080231	1.0
[Spine1]
10	0	0	2.140589952	7.793386936	0.14925313	-1.705833912	1.0
11	0	0	2.140589952	8.379448891	0.3551481962	-1.957164764	1.0
12	0	0	2.140589952	9.072479248	0.1891001761	-2.156714201	1.0
13	0	0	2.140589952	9.439397812	-0.2913223207	-2.342731714	1.0
14	0	0	2.140589952	9.057739258	-0.05884003639	-2.347165108	1.0
15	0	0	2.140589952	8.559898376	0.1123972312	-2.366123199	1.0
[Neck]
10	0	0	2.32246995	65.0499649	76.75336456	87.21333313	1.0
11	0	0	2.32246995	62.55152512	76.58442688	86.11557007	1.0
12	0	0	2.32246995	60.88000488	76.42367554	85.54715729	1.0
13	0	0	2.32246995	61.58363724	76.43012238	86.90797424	1.0
14	0	0	2.32246995	60.09512711	76.46501923	85.28033447	1.0
15	0	0	2.32246995	58.77388763	76.26130676	83.32705688	1.0
[Head]
10	0	-0.1818799973	1.409579992	-67.15440369	97.16772461	-62.76104736	1.0
11	0	-0.1818799973	1.409579992	-68.88533783	97.20098877	-63.80508041	1.0
12	0	-0.1818799973	1.409579992	-71.57659912	97.18502808	-65.4771347	1.0
13	0	-0.1818799973	1.409579992	-73.28040314	97.15935516	-66.60745239	1.0
14	0	-0.1818799973	1.409579992	-77.30700684	96.79803467	-69.92736816	1.0
15	0	-0.1818799973	1.409579992	-77.65622711	96.88555908	-69.94697571	1.0
[LeftShoulder]
10	0.3668199778	0.02662999928	1.946700096	-17.63059998	1.693180919	-16.29349327	1.0
11	0.3668199778	0.02662999928	1.946700096	-18.03555679	1.447345972	-17.10342026	1.0
12	0.3668199778	0.02662999928	1.946700096	-18.24763489	1.027923465	-17.68915176	1.0
13	0.3668199778	0.02662999928	1.946700096	-18.48810387	0.827257216	-17.96600914	1.0
14	0.3668199778	0.02662999928	1.946700096	-17.7076149	0.5546813607	-17.93420792	1.0
15	0.3668199778	0.02662999928	1.946700096	-17.75175285	0.2030408233	-17.8806839	1.0
[LeftArm]
10	1.140689969	0	0	68.12780762	76.60028076	14.21536827	1.0
11	1.140689969	0	0	59.00557709	75.12866211	2.316474438	1.0
12	1.140689969	0	0	50.75675583	72.93247986	-7.771584511	1.0
13	1.140689969	0	0	46.87850952	71.08377075	-12.0342083	1.0
14	1.140689969	0	0	41.40767288	67.52633667	-17.83271599	1.0
15	1.140689969	0	0	42.26136017	67.01774597	-16.41733932	1.0
[LeftForeArm]
10	2.749800205	0	0	-5.14428091	-0.2280004472	-30.81101608	1.0
11	2.749800205	0	0	-5.171145916	-0.4836176336	-34.97418976	1.0
12	2.749800205	0	0	-5.029787064	-1.093906164	-39.26410675	1.0
13	2.749800205	0	0	-4.744662285	-1.588321209	-42.18852997	1.0
14	2.749800205	0	0	-4.593757629	-1.775253057	-46.11070251	1.0
15	2.749800205	0	0	-4.709990501	-2.228921652	-46.61186218	1.0
[LeftHand]
10	2.295179844	0	0	-5.697107792	6.187240124	-9.087251663	1.0
11	2.295179844	0	0	-5.787194252	4.864682198	-10.72291088	1.0
12	2.295179844	0	0	-6.040452957	5.867569447	-12.07824802	1.0
13	2.295179844	0	0	-6.125379086	6.772398949	-12.9259882	1.0
14	2.295179844	0	0	-6.045948029	5.683558464	-13.96305656	1.0
15	2.295179844	0	0	-6.257593155	4.803033829	-13.88212585	1.0
[RightShoulder]
10	-0.3601199985	0.02662999928	1.946700096	-2.894620419	7.114784241	-177.9517059	1.0
11	-0.3601199985	0.02662999928	1.946700096	-2.793312073	7.116665363	-178.2935486	1.0
12	-0.3601199985	0.02662999928	1.946700096	-2.813701868	7.141246796	-178.5672455	1.0
13	-0.3601199985	0.02662999928	1.946700096	-3.109085083	7.708787441	-178.6684723	1.0
14	-0.3601199985	0.02662999928	1.946700096	-2.689963341	7.720575333	-179.5243835	1.0
15	-0.3601199985	0.02662999928	1.946700096	-2.687485933	7.543228149	-179.6697845	1.0
[RightArm]
10	-1.140689969	0	0	65.73880005	-76.26584625	-211.3450928	1.0
11	-1.140689969	0	0	62.31090927	-75.66581726	-209.8429108	1.0
12	-1.140689969	0	0	57.66637421	-74.91488647	-207.2294922	1.0
13	-1.140689969	0	0	56.02115631	-74.47640991	-207.0868988	1.0
14	-1.140689969	0	0	50.68398666	-73.44439697	-205.0593719	1.0
15	-1.140689969	0	0	49.63272858	-72.85656738	-204.4511261	1.0
[RightForeArm]
10	-2.749800205	0	0	5.820683479	-7.678189278	-175.3167419	1.0
11	-2.749800205	0	0	6.837768555	-7.972590923	-176.7350006	1.0
12	-2.749800205	0	0	7.882739544	-8.3007164	-177.3371277	1.0
13	-2.749800205	0	0	8.002570152	-8.187726021	-176.8640747	1.0
14	-2.749800205	0	0	8.430260658	-8.25270462	-174.3818512	1.0
15	-2.749800205	0	0	8.237873077	-8.298374176	-172.6897278	1.0
[RightHand]
10	-2.295179844	0	0	6.124253273	-0.6232084632	-177.6449585	1.0
11	-2.295179844	0	0	7.083727837	1.115525246	-177.3884125	1.0
12	-2.295179844	0	0	8.141139984	3.052503109	-177.5943146	1.0
13	-2.295179844	0	0	8.322486877	3.820114851	-177.1419678	1.0
14	-2.295179844	0	0	8.987406731	4.146082401	-175.8047943	1.0
15	-2.295179844	0	0	8.954395294	3.938682795	-174.6367493	1.0
[LeftUpLeg]
10	0.9094099998	0	0	78.20032501	-99.9557724	-75.21051025	1.0
11	0.9094099998	0	0	95.5775528	-97.83805084	-88.41896057	1.0
12	0.9094099998	0	0	113.4123154	-96.85236359	-102.8669586	1.0
13	0.9094099998	0	0	124.6838684	-95.87667084	-112.548996	1.0
14	0.9094099998	0	0	137.2750702	-95.90065002	-124.2877579	1.0
15	0.9094099998	0	0	149.4076233	-95.89723969	-136.3699341	1.0
[LeftLeg]
10	0	0	-4.498080254	71.45118713	-82.46886444	-17.63121223	1.0
11	0	0	-4.498080254	78.50214386	-77.93096161	-35.99232483	1.0
12	0	0	-4.498080254	81.74542236	-76.59205627	-50.13541031	1.0
13	0	0	-4.498080254	80.95756531	-72.92059326	-55.79797745	1.0
14	0	0	-4.498080254	78.20008087	-71.95780945	-62.15242004	1.0
15	0	0	-4.498080254	75.30692291	-73.10359192	-62.6116333	1.0
[LeftFoot]
10	0	0	-3.729400158	-36.38362503	-6.460113525	92.82893372	1.0
11	0	0	-3.729400158	-47.15923309	-5.568000793	96.98925018	1.0
12	0	0	-3.729400158	-57.24575806	-7.177778244	100.1661987	1.0
13	0	0	-3.729400158	-63.10826874	-7.417764187	105.9566345	1.0
14	0	0	-3.729400158	-70.01803589	-9.8361063	111.2688293	1.0
15	0	0	-3.729400158	-71.28749084	-10.88087654	112.7832565	1.0
[LeftToeBase]
10	0	-1.364109993	-0.5911099911	9.999999975e-007	9.999999975e-007	1.745329176e-014	1.0
11	0	-1.364109993	-0.5911099911	9.999999975e-007	9.999999975e-007	1.745329176e-014	1.0
12	0	-1.364109993	-0.5911099911	9.999999975e-007	9.999999975e-007	1.745329176e-014	1.0
13	0	-1.364109993	-0.5911099911	9.999999975e-007	9.999999975e-007	1.745329176e-014	1.0
14	0	-1.364109993	-0.5911099911	9.999999975e-007	9.999999975e-007	1.745329176e-014	1.0
15	0	-1.364109993	-0.5911099911	9.999999975e-007	9.999999975e-007	1.745329176e-014	1.0
[RightUpLeg]
10	-0.9094099998	0	0	-40.33951569	-98.9327774	22.37020683	1.0
11	-0.9094099998	0	0	-49.561306	-99.35913086	30.55283928	1.0
12	-0.9094099998	0	0	-49.53910065	-99.65724182	28.31128693	1.0
13	-0.9094099998	0	0	-51.26309204	-99.48712921	28.86169434	1.0
14	-0.9094099998	0	0	-55.44169998	-97.55542755	32.16877747	1.0
15	-0.9094099998	0	0	-60.72203827	-96.82524872	37.7002182	1.0
[RightLeg]
10	0	0	-4.498080254	2.780889511	-85.78189087	24.00503159	1.0
11	0	0	-4.498080254	27.11940765	-83.77911377	-4.185328484	1.0
12	0	0	-4.498080254	41.0681076	-81.73088837	-19.77472496	1.0
13	0	0	-4.498080254	13.44216061	-83.94262695	6.770409107	1.0
14	0	0	-4.498080254	56.48667526	-83.54561615	-42.51443481	1.0
15	0	0	-4.498080254	70.52851868	-80.13165283	-59.41217422	1.0
[RightFoot]
10	0	0	-3.729400158	-47.95652008	-24.29889107	88.86187744	1.0
11	0	0	-3.729400158	-46.84866714	-23.02464104	94.35958099	1.0
12	0	0	-3.729400158	-45.37802505	-21.49322319	97.10649109	1.0
13	0	0	-3.729400158	-42.55302429	-23.9292469	92.68357086	1.0
14	0	0	-3.729400158	-41.71075821	-20.84001732	97.64762878	1.0
15	0	0	-3.729400158	-43.45708466	-22.19387436	105.1728745	1.0
[RightToeBase]
10	0	-1.364109993	-0.5911099911	-9.999999975e-007	0	1.999999995e-006	1.0
11	0	-1.364109993	-0.5911099911	-9.999999975e-007	0	1.999999995e-006	1.0
12	0	-1.364109993	-0.5911099911	-9.999999975e-007	0	1.999999995e-006	1.0
13	0	-1.364109993	-0.5911099911	-9.999999975e-007	0	1.999999995e-006	1.0
14	0	-1.364109993	-0.5911099911	-9.999999975e-007	0	1.999999995e-006	1.0
15	0	-1.364109993	-0.5911099911	-9.999999975e-007	0	1.999999995e-006	1.0
[EndOfFile]
